 <svg  version="1.0" xmlns="http://www.w3.org/2000/svg"  width="300.000000pt" height="300.000000pt" viewBox="0 0 300.000000 300.000000"  preserveAspectRatio="xMidYMid meet">  <g transform="translate(0.000000,300.000000) scale(0.100000,-0.100000)" fill="#ffffff" stroke="none"> <path d="M1310 2989 c-491 -56 -942 -354 -1159 -768 -222 -426 -196 -928 70 -1326 l52 -78 -137 -341 c-75 -187 -137 -352 -136 -364 0 -55 60 -112 115 -112 15 0 202 77 415 171 l388 171 75 -25 c374 -126 818 -102 1174 63 91 42 118 72 118 131 0 49 -31 90 -81 108 -37 13 -43 12 -114 -19 -198 -85 -338 -118 -535 -127 -186 -7 -324 12 -503 73 -82 28 -142 42 -155 39 -12 -4 -140 -59 -285 -122 -144 -64 -265 -114 -267 -111 -3 2 38 111 91 241 73 181 94 243 90 265 -4 15 -34 64 -67 107 -312 412 -295 958 43 1354 263 310 680 475 1110 440 491 -39 911 -333 1078 -754 107 -270 96 -577 -30 -843 -22 -45 -53 -103 -71 -128 -55 -81 -47 -164 21 -199 74 -38 128 -8 198 107 239 396 254 871 41 1279 -191 364 -559 639 -989 738 -165 39 -374 50 -550 30z"/> <path d="M1460 2243 c-28 -11 -59 -46 -70 -79 -25 -73 30 -144 110 -144 109 0 156 124 76 199 -24 23 -87 36 -116 24z"/> <path d="M1461 1837 c-19 -7 -44 -25 -55 -40 -20 -28 -21 -39 -21 -389 l0 -360 37 -34 c53 -48 103 -48 156 0 l37 34 3 346 c2 284 0 351 -12 380 -24 57 -84 84 -145 63z"/> </g> </svg> 