 <svg  version="1.0" xmlns="http://www.w3.org/2000/svg"  width="300.000000pt" height="300.000000pt" viewBox="0 0 300.000000 300.000000"  preserveAspectRatio="xMidYMid meet">  <g transform="translate(0.000000,300.000000) scale(0.100000,-0.100000)" fill="#ffffff" stroke="none"> <path d="M1384 2975 c-71 -36 -1324 -1290 -1353 -1355 -23 -50 -27 -141 -11 -202 27 -97 133 -177 245 -186 l64 -5 3 -496 3 -496 27 -51 c30 -57 87 -112 150 -146 42 -22 52 -23 348 -26 l306 -3 24 26 25 27 5 397 c6 450 3 436 87 473 40 18 62 19 216 16 161 -3 174 -4 205 -26 17 -13 38 -33 45 -45 9 -16 13 -128 17 -419 l5 -396 24 -26 24 -26 291 0 c348 0 358 2 451 95 98 98 95 78 95 641 l0 481 63 5 c104 9 188 63 231 150 34 67 36 170 5 238 -30 67 -1283 1322 -1354 1356 -71 34 -172 34 -241 -1z m805 -789 l644 -644 -6 -44 c-9 -70 -39 -88 -143 -88 -85 0 -143 -15 -160 -41 -5 -8 -11 -256 -14 -551 -5 -522 -6 -537 -26 -564 -50 -68 -54 -69 -294 -72 l-219 -3 -3 353 c-3 352 -3 353 -28 403 -35 71 -108 139 -177 165 -52 19 -72 21 -272 18 -205 -3 -218 -4 -265 -27 -66 -33 -122 -91 -155 -160 l-26 -56 -3 -348 -3 -348 -219 3 c-240 3 -244 4 -294 72 -20 27 -21 42 -26 566 l-5 539 -22 23 c-19 19 -37 22 -130 27 -59 3 -114 10 -121 14 -24 16 -44 69 -38 101 5 25 136 162 644 669 629 629 638 637 677 637 39 0 48 -8 684 -644z"/> </g> </svg> 