 <svg  version="1.0" xmlns="http://www.w3.org/2000/svg"  width="300.000000pt" height="300.000000pt" viewBox="0 0 300.000000 300.000000"  preserveAspectRatio="xMidYMid meet">  <g transform="translate(0.000000,300.000000) scale(0.100000,-0.100000)" fill="#ffffff" stroke="none"> <path d="M771 2957 c-8 -10 -12 -372 -13 -1308 l-3 -1294 -250 -5 -250 -5 -3 -28 c-10 -89 72 -214 170 -258 l53 -24 1124 -3 c829 -2 1127 1 1137 9 19 16 21 2898 2 2917 -19 19 -1951 17 -1967 -1z m1909 -1457 l0 -1400 -975 0 -976 0 30 38 c66 82 62 -22 61 1438 l0 1324 930 0 930 0 0 -1400z m-1934 -1241 c-17 -84 -118 -159 -216 -159 -82 0 -187 83 -206 163 l-6 27 217 0 218 0 -7 -31z"/> <path d="M1047 2683 c-13 -12 -8 -368 5 -381 17 -17 1389 -17 1406 0 17 17 17 359 0 376 -9 9 -180 12 -708 12 -383 0 -700 -3 -703 -7z m1353 -193 l0 -130 -645 0 -645 0 0 130 0 130 645 0 645 0 0 -130z"/> <path d="M1176 2004 c-17 -44 -15 -44 583 -42 l566 3 0 25 0 25 -571 3 c-522 2 -572 1 -578 -14z"/> <path d="M1180 1671 c-7 -15 -6 -23 6 -35 14 -14 79 -16 563 -16 579 0 588 1 579 46 -3 18 -19 19 -570 22 -552 2 -567 2 -578 -17z"/> <path d="M1181 1341 c-7 -13 -7 -23 2 -35 11 -15 62 -16 577 -14 l565 3 3 24 c2 13 -2 28 -10 32 -7 5 -264 9 -570 9 -533 0 -558 -1 -567 -19z"/> <path d="M1619 960 c-61 -104 -116 -190 -122 -190 -5 0 -73 34 -152 75 -145 76 -178 87 -189 60 -3 -9 20 -118 51 -243 38 -156 58 -257 62 -322 l6 -95 480 0 480 0 7 105 c5 76 21 165 61 324 30 121 53 226 50 233 -10 25 -46 13 -191 -62 -80 -41 -149 -75 -153 -75 -5 0 -59 86 -121 190 -91 154 -117 190 -134 190 -18 0 -43 -36 -135 -190z m250 -97 c78 -134 106 -173 122 -173 11 0 76 30 145 66 69 37 127 64 130 62 2 -3 -15 -84 -38 -181 l-43 -177 -430 0 -431 0 -43 175 c-24 97 -41 178 -38 181 3 3 61 -24 129 -60 69 -36 134 -66 145 -66 16 0 44 40 128 181 59 100 110 177 114 173 5 -5 54 -87 110 -181z m306 -518 l0 -40 -422 -3 -423 -2 0 45 0 45 423 -2 422 -3 0 -40z"/> </g> </svg> 