 <svg  version="1.0" xmlns="http://www.w3.org/2000/svg"  width="300.000000pt" height="300.000000pt" viewBox="0 0 300.000000 300.000000"  preserveAspectRatio="xMidYMid meet">  <g transform="translate(0.000000,300.000000) scale(0.100000,-0.100000)" fill="#ffffff" stroke="none"> <path d="M629 2532 c-300 -175 -554 -323 -563 -331 -15 -12 -16 -72 -16 -661 0 -603 1 -648 18 -663 28 -25 1110 -647 1126 -647 8 0 143 74 300 165 156 91 287 165 289 165 3 0 7 -64 9 -142 3 -162 16 -196 86 -240 l37 -23 455 0 455 0 37 23 c20 13 47 40 60 60 l23 37 0 640 c0 609 -1 642 -19 678 -11 22 -37 51 -59 65 -35 24 -52 27 -143 30 -87 4 -104 7 -109 21 -3 10 -19 31 -36 47 -29 28 -34 29 -139 32 l-110 4 -2 205 -3 205 -560 324 c-308 178 -567 323 -575 323 -8 -1 -261 -143 -561 -317z m788 101 c123 -71 222 -132 220 -136 -1 -5 -228 -139 -503 -298 l-501 -289 -228 131 c-153 90 -222 135 -213 140 58 36 994 578 998 578 3 1 105 -56 227 -126z m560 -324 c125 -72 229 -132 231 -134 2 -2 -959 -559 -999 -579 -13 -6 -72 23 -246 124 -125 72 -231 135 -235 139 -4 3 115 77 265 164 149 86 376 218 502 291 127 74 235 133 242 131 7 -2 115 -63 240 -136z m-1309 -513 l482 -278 0 -585 c0 -499 -2 -584 -14 -580 -11 5 -356 203 -938 539 l-68 39 0 578 c0 318 3 581 7 584 3 4 16 1 27 -6 12 -7 238 -138 504 -291z m1582 150 l0 -153 -32 -7 c-33 -7 -98 -61 -98 -82 0 -8 -32 -13 -104 -16 -91 -3 -108 -6 -143 -30 -78 -52 -77 -46 -83 -552 l-5 -448 -265 -154 c-146 -84 -268 -154 -272 -154 -5 0 -8 263 -8 584 l0 584 503 291 c276 160 503 291 505 291 1 0 2 -69 2 -154z m280 -256 c24 -24 25 -48 4 -78 -14 -21 -22 -22 -164 -22 -142 0 -150 1 -164 22 -21 30 -20 54 4 78 18 18 33 20 160 20 127 0 142 -2 160 -20z m-400 -115 c36 -59 59 -65 240 -65 180 0 204 7 242 68 19 31 21 32 91 32 95 0 137 -21 155 -74 10 -31 12 -173 10 -642 l-3 -604 -28 -27 -27 -28 -439 0 -439 0 -26 24 -26 24 0 629 c0 431 3 636 11 649 16 32 67 48 146 49 71 0 71 0 93 -35z"/> <path d="M1980 1344 c-13 -34 -13 -200 0 -225 13 -24 91 -27 110 -4 14 17 5 51 -15 59 -11 4 -15 21 -15 61 l0 55 52 0 c34 0 58 -6 70 -17 15 -13 23 -14 43 -5 19 9 25 19 25 45 0 52 -11 57 -142 57 -118 0 -119 0 -128 -26z"/> <path d="M2251 1266 l-64 -65 -29 25 c-33 27 -48 30 -66 12 -23 -23 -12 -55 33 -97 24 -22 50 -41 57 -41 8 0 53 40 102 89 69 69 87 93 84 112 -2 17 -10 25 -28 27 -19 2 -39 -12 -89 -62z"/> <path d="M2443 1264 c-19 -8 -16 -61 3 -68 24 -9 287 -7 302 3 8 5 12 21 10 37 l-3 29 -150 2 c-82 1 -156 -1 -162 -3z"/> <path d="M1989 979 c-19 -19 -20 -30 -17 -130 2 -84 7 -112 18 -119 23 -14 233 -13 248 2 8 8 12 50 12 124 0 146 2 144 -136 144 -92 0 -106 -2 -125 -21z m181 -124 l0 -55 -55 0 -55 0 0 55 0 55 55 0 55 0 0 -55z"/> <path d="M2448 889 c-24 -13 -23 -56 1 -69 11 -5 77 -10 146 -10 137 0 165 8 165 45 0 14 -8 29 -19 35 -25 13 -270 13 -293 -1z"/> <path d="M1990 610 c-11 -7 -16 -34 -18 -114 -5 -129 3 -146 61 -146 47 0 67 13 67 43 0 18 3 17 27 -7 55 -56 56 -56 154 40 91 90 108 123 72 142 -27 14 -42 5 -110 -61 l-63 -61 -24 23 c-36 33 -76 23 -76 -20 0 -18 -4 -28 -10 -24 -5 3 -10 31 -10 61 l0 54 53 0 c41 0 55 -4 65 -20 26 -43 72 -17 72 40 0 20 -5 41 -12 48 -15 15 -225 16 -248 2z"/> <path d="M2443 514 c-19 -8 -16 -61 3 -68 24 -9 287 -7 302 3 8 5 12 21 10 37 l-3 29 -150 2 c-82 1 -156 -1 -162 -3z"/> </g> </svg> 