 <svg  version="1.0" xmlns="http://www.w3.org/2000/svg"  width="300.000000pt" height="300.000000pt" viewBox="0 0 300.000000 300.000000"  preserveAspectRatio="xMidYMid meet">  <g transform="translate(0.000000,300.000000) scale(0.100000,-0.100000)" fill="#ffffff" stroke="none"> <path d="M1376 2939 c-179 -42 -344 -214 -377 -394 -7 -33 -13 -65 -14 -71 -2 -6 -66 -45 -144 -88 l-141 -77 -57 17 c-42 12 -82 15 -155 12 -88 -4 -106 -9 -174 -42 -167 -83 -264 -237 -264 -421 0 -184 97 -338 266 -422 77 -38 79 -38 198 -38 119 0 122 1 199 37 103 50 175 122 225 225 36 77 37 80 37 198 0 118 -1 121 -37 197 -24 50 -56 97 -89 129 -47 48 -49 53 -33 63 11 6 54 30 96 54 l77 43 10 -43 c17 -69 78 -181 124 -230 54 -56 126 -106 186 -129 l46 -17 3 -448 c1 -246 -2 -452 -6 -456 -5 -5 -17 30 -26 79 -26 136 -43 178 -94 234 -60 67 -127 99 -207 99 -68 0 -96 -14 -120 -60 -24 -47 -18 -82 26 -150 55 -86 56 -87 79 -272 23 -176 31 -200 166 -470 30 -59 44 -100 44 -127 l0 -40 -47 -3 -48 -3 -3 -137 -3 -138 521 0 520 0 0 140 0 140 -50 0 -50 0 0 36 c0 28 12 52 51 105 90 121 89 117 89 527 0 336 -1 359 -20 389 -26 43 -72 66 -126 61 -35 -2 -45 0 -50 14 -9 28 -72 77 -109 84 -25 4 -46 1 -73 -13 -37 -18 -40 -18 -78 -1 -25 12 -51 16 -72 13 l-32 -6 2 202 3 201 46 17 c141 54 259 187 304 344 l17 57 76 -42 c43 -24 85 -48 96 -54 16 -10 14 -15 -33 -63 -33 -32 -65 -79 -89 -129 -36 -76 -37 -79 -37 -197 0 -118 1 -121 37 -198 50 -103 122 -175 225 -225 77 -36 80 -37 199 -37 119 0 121 0 198 38 169 84 266 238 266 422 0 184 -97 338 -264 421 -68 33 -86 38 -174 42 -73 3 -113 0 -155 -12 l-57 -17 -141 77 c-78 43 -142 82 -144 88 -1 6 -7 38 -14 71 -34 183 -198 352 -381 394 -54 13 -190 12 -244 0z m229 -94 c123 -32 217 -112 278 -234 30 -61 32 -72 32 -171 0 -95 -3 -111 -29 -167 -40 -88 -46 -90 -86 -35 -33 43 -102 104 -132 115 -9 3 -7 11 9 28 34 38 53 93 53 156 0 108 -78 202 -183 222 -145 27 -277 -78 -277 -222 0 -63 19 -118 53 -156 16 -17 18 -25 9 -28 -30 -11 -99 -72 -132 -115 -40 -55 -46 -53 -86 35 -26 56 -29 72 -29 167 0 99 2 110 32 171 95 193 289 285 488 234z m-19 -206 c56 -52 69 -119 34 -176 -56 -92 -177 -94 -238 -3 -44 66 -12 168 63 201 36 16 113 4 141 -22z m-27 -350 c68 -14 136 -60 171 -116 17 -26 30 -52 30 -59 0 -13 -69 -56 -108 -68 -17 -6 -31 0 -57 23 -60 52 -144 51 -196 -5 -17 -19 -30 -23 -48 -19 -37 9 -111 55 -111 69 0 26 61 106 100 132 38 26 113 52 152 53 9 1 39 -4 67 -10z m-888 -76 c81 -38 144 -100 183 -183 28 -58 31 -75 31 -155 0 -91 -15 -143 -61 -213 -16 -24 -16 -24 -30 -4 -8 12 -37 35 -64 53 -28 18 -50 34 -50 35 0 1 13 24 30 51 98 158 -10 356 -195 356 -188 1 -296 -205 -191 -362 l34 -50 -27 -11 c-15 -6 -46 -29 -68 -51 l-42 -40 -30 53 c-118 207 -12 468 222 544 70 23 182 13 258 -23z m1974 -2 c195 -96 271 -333 164 -519 l-30 -53 -37 36 c-20 20 -49 43 -64 51 -16 8 -28 16 -28 19 0 2 15 27 33 56 28 45 32 61 32 118 -1 137 -97 234 -230 234 -184 0 -294 -197 -196 -354 17 -28 31 -52 31 -53 0 -1 -22 -17 -50 -35 -27 -18 -56 -41 -64 -53 -14 -20 -14 -20 -30 4 -46 70 -61 122 -61 213 0 80 3 97 31 155 69 145 200 224 358 216 62 -3 91 -11 141 -35z m-2072 -162 c71 -37 99 -105 72 -175 -55 -144 -265 -108 -265 45 0 54 22 97 63 121 36 22 97 26 130 9z m1978 -4 c41 -22 69 -71 69 -124 0 -155 -210 -192 -265 -47 -46 119 81 230 196 171z m-1021 -45 c19 -19 20 -33 20 -400 l0 -380 45 0 45 0 0 103 c0 108 7 127 45 127 38 0 45 -19 45 -127 l0 -103 50 0 50 0 0 103 c0 108 7 127 45 127 38 0 45 -19 45 -127 l0 -103 50 0 50 0 0 58 c0 32 5 63 12 70 17 17 44 15 62 -4 14 -13 16 -58 16 -342 0 -194 -4 -342 -10 -364 -6 -21 -38 -73 -70 -118 -56 -75 -60 -84 -60 -135 l0 -55 -330 0 -330 0 0 55 c0 47 -8 72 -59 173 -123 246 -128 262 -151 441 -23 177 -30 202 -83 281 -40 60 -39 80 7 80 75 -1 161 -70 184 -148 6 -20 23 -101 39 -179 l27 -143 57 0 56 0 32 68 31 69 0 476 c0 464 1 478 20 497 11 11 25 20 30 20 6 0 19 -9 30 -20z m-895 -340 c23 -11 56 -35 74 -54 l33 -34 -68 -33 c-63 -31 -77 -34 -159 -34 -82 0 -96 3 -159 34 l-68 33 33 34 c78 81 211 104 314 54z m1969 0 c23 -12 57 -36 75 -54 l33 -34 -68 -33 c-63 -31 -77 -34 -159 -34 -82 0 -96 3 -158 34 l-69 33 24 25 c83 90 211 115 322 63z m-544 -1475 l0 -45 -420 0 -420 0 0 45 0 45 420 0 420 0 0 -45z"/> <path d="M330 1003 l0 -308 -31 -17 c-38 -22 -72 -96 -63 -135 21 -87 98 -137 176 -114 50 15 85 52 98 103 14 50 -15 120 -59 146 l-31 17 0 308 0 307 -45 0 -45 0 0 -307z m71 -403 c37 -20 18 -80 -26 -80 -43 0 -63 58 -27 79 22 13 29 13 53 1z"/> <path d="M583 1290 c-42 -25 -63 -68 -63 -126 0 -43 4 -51 45 -91 l45 -43 0 -305 0 -305 45 0 45 0 0 310 0 309 31 16 c40 21 73 93 64 138 -21 98 -129 148 -212 97z m98 -80 c37 -20 18 -80 -26 -80 -42 0 -59 44 -29 74 18 19 28 20 55 6z"/> <path d="M2390 1003 l0 -308 -29 -17 c-68 -38 -82 -150 -26 -208 59 -61 141 -63 200 -5 62 63 56 149 -16 207 l-39 31 0 304 0 303 -45 0 -45 0 0 -307z m78 -405 c28 -28 7 -78 -33 -78 -42 0 -59 44 -29 74 18 19 45 21 62 4z"/> <path d="M2646 1292 c-86 -59 -87 -181 -1 -238 l25 -16 0 -310 0 -309 48 3 47 3 3 303 2 303 39 37 c65 62 67 134 7 199 -28 31 -40 37 -87 40 -42 3 -60 0 -83 -15z m109 -97 c21 -32 2 -65 -35 -65 -42 0 -62 40 -35 70 23 25 53 23 70 -5z"/> </g> </svg> 