 <svg  version="1.0" xmlns="http://www.w3.org/2000/svg"  width="300.000000pt" height="300.000000pt" viewBox="0 0 300.000000 300.000000"  preserveAspectRatio="xMidYMid meet">  <g transform="translate(0.000000,300.000000) scale(0.100000,-0.100000)" fill="#ffffff" stroke="none"> <path d="M806 2900 c-16 -5 -40 -19 -54 -32 -45 -42 -52 -74 -52 -258 l0 -170 -175 0 c-137 0 -183 -3 -215 -16 -73 -29 -77 -41 -126 -381 -29 -199 -43 -323 -39 -350 10 -66 60 -133 128 -167 l57 -29 0 -557 0 -557 -72 -6 c-47 -4 -81 -13 -97 -25 -89 -66 -88 -169 3 -236 27 -21 30 -21 1336 -21 1306 0 1309 0 1336 21 91 67 92 170 3 236 -16 12 -50 21 -97 25 l-72 6 0 557 0 558 56 27 c62 31 108 84 125 149 10 35 5 87 -31 341 -48 344 -58 376 -122 405 -37 17 -66 20 -220 20 l-177 0 -3 184 c-3 202 -6 211 -72 260 -27 21 -38 21 -709 23 -375 1 -695 -2 -711 -7z m1382 -102 c17 -17 17 -889 0 -906 -17 -17 -1359 -17 -1376 0 -17 17 -17 889 0 906 17 17 1359 17 1376 0z m-1670 -780 c-3 -317 -3 -324 -26 -360 -32 -51 -96 -76 -154 -59 -47 15 -84 51 -96 95 -11 40 68 606 87 630 10 12 34 16 103 16 l89 0 -3 -322z m182 104 c0 -206 1 -220 23 -262 26 -51 73 -80 131 -80 l39 0 -5 -51 c-6 -64 -32 -99 -92 -123 -45 -19 -47 -19 -92 0 -90 37 -89 29 -92 405 l-3 329 46 0 45 0 0 -218z m1688 -111 c-3 -376 -2 -368 -92 -405 -45 -19 -47 -19 -92 0 -60 24 -86 59 -92 123 l-5 51 39 0 c58 0 105 29 132 80 21 42 22 56 22 262 l0 218 45 0 46 0 -3 -329z m283 313 c19 -24 98 -590 87 -630 -11 -42 -52 -81 -99 -95 -55 -17 -120 9 -151 59 -23 36 -23 43 -26 360 l-3 322 89 0 c69 0 93 -4 103 -16z m-1405 -591 c-11 -83 -67 -136 -141 -136 -74 0 -130 53 -141 136 l-7 47 148 0 148 0 -7 -47z m372 -4 c-6 -64 -32 -99 -92 -123 -45 -19 -47 -19 -92 0 -60 24 -86 59 -92 123 l-5 51 143 0 143 0 -5 -51z m378 4 c-11 -83 -67 -136 -141 -136 -74 0 -130 53 -141 136 l-7 47 148 0 148 0 -7 -47z m-1356 -212 c82 -37 185 -18 253 47 26 25 29 25 38 10 5 -10 31 -30 57 -45 39 -23 59 -28 117 -28 58 0 78 5 117 28 26 15 52 35 57 45 9 15 12 15 38 -10 40 -38 111 -68 163 -68 52 0 123 30 163 68 26 25 29 25 38 10 5 -10 31 -30 57 -45 39 -23 59 -28 117 -28 58 0 78 5 117 28 26 15 52 35 57 45 9 15 12 15 38 -10 40 -38 111 -68 163 -68 50 0 134 35 164 68 l18 21 37 -29 c20 -16 53 -36 74 -45 l37 -15 0 -560 0 -560 -655 0 -655 0 0 323 c0 177 -4 349 -10 381 -27 165 -145 286 -308 316 -158 28 -326 -59 -399 -208 l-28 -57 -3 -377 -3 -378 -49 0 -50 0 0 559 0 559 53 26 c30 14 62 35 72 46 l18 20 26 -24 c14 -14 46 -34 71 -45z m340 -232 c55 -25 114 -80 143 -134 21 -39 22 -53 25 -407 l3 -368 -281 0 -280 0 0 348 c0 394 2 407 72 487 61 69 114 93 213 94 40 0 75 -6 105 -20z m1798 -1021 c15 -15 15 -51 0 -66 -17 -17 -2579 -17 -2596 0 -15 15 -15 51 0 66 17 17 2579 17 2596 0z"/> <path d="M1160 2702 c-61 -30 -80 -72 -80 -172 l0 -87 -50 -6 c-28 -3 -65 -16 -81 -28 -48 -34 -59 -73 -59 -202 0 -143 3 -147 113 -147 l76 0 39 -41 c31 -33 46 -42 83 -46 54 -6 98 13 131 57 l22 30 146 0 146 0 22 -30 c33 -44 77 -63 131 -57 37 4 52 13 83 46 l39 41 78 0 c108 0 111 4 111 151 0 164 -30 213 -138 226 l-52 6 0 87 c0 74 -3 92 -23 121 -44 67 -56 69 -397 69 -270 0 -309 -2 -340 -18z m290 -172 l0 -90 -140 0 -140 0 0 71 c0 111 -2 109 150 109 l130 0 0 -90z m370 71 c5 -11 10 -51 10 -90 l0 -71 -140 0 -140 0 0 90 0 90 130 0 c118 0 130 -2 140 -19z m190 -287 c6 -14 10 -54 10 -90 l0 -64 -49 0 c-43 0 -53 4 -88 39 -67 68 -141 67 -205 0 l-37 -39 -141 0 -141 0 -37 39 c-64 67 -138 68 -205 0 -35 -35 -45 -39 -88 -39 l-49 0 0 64 c0 36 4 76 10 90 l10 26 500 0 500 0 10 -26z m-760 -174 c11 -11 20 -24 20 -30 0 -14 -37 -50 -52 -50 -18 0 -48 31 -48 51 0 17 35 49 52 49 5 0 17 -9 28 -20z m558 4 c12 -8 22 -22 22 -31 0 -21 -29 -53 -47 -53 -15 0 -53 35 -53 50 0 12 37 50 48 50 4 0 18 -7 30 -16z"/> <path d="M1533 1389 c-30 -15 -48 -33 -63 -64 -20 -42 -21 -55 -18 -402 3 -398 2 -392 71 -433 30 -19 53 -20 445 -20 456 0 454 0 492 63 19 30 20 53 20 409 l0 377 -31 35 c-17 20 -47 40 -67 46 -22 6 -191 10 -422 10 -370 0 -387 -1 -427 -21z m845 -91 c9 -9 12 -102 12 -357 0 -306 -2 -346 -17 -363 -15 -17 -41 -18 -400 -18 -246 0 -391 4 -404 10 -18 10 -19 25 -19 363 0 261 3 356 12 365 17 17 799 17 816 0z"/> <path d="M2062 1173 l3 -48 67 -3 67 -3 3 -67 3 -67 45 0 45 0 3 94 c4 137 0 141 -134 141 l-105 0 3 -47z"/> <path d="M1030 750 l0 -51 48 3 47 3 0 45 0 45 -47 3 -48 3 0 -51z"/> </g> </svg> 