 <svg  version="1.0" xmlns="http://www.w3.org/2000/svg"  width="300.000000pt" height="300.000000pt" viewBox="0 0 300.000000 300.000000"  preserveAspectRatio="xMidYMid meet">  <g transform="translate(0.000000,300.000000) scale(0.100000,-0.100000)" fill="#ffffff" stroke="none"> <path d="M2110 2982 c-19 -9 -45 -32 -57 -51 -22 -33 -23 -41 -23 -265 0 -268 4 -285 80 -323 34 -18 61 -23 118 -23 l75 0 -6 -27 c-18 -98 -39 -244 -35 -249 3 -2 104 57 224 133 l219 138 97 5 c104 6 130 17 172 74 20 26 21 41 21 264 0 229 -1 238 -23 273 -42 68 -46 69 -459 69 -330 0 -372 -2 -403 -18z m780 -101 c6 -12 10 -102 10 -225 0 -173 -2 -207 -16 -220 -12 -12 -37 -16 -103 -16 l-87 0 -149 -94 c-83 -51 -152 -89 -154 -84 -3 9 15 121 26 161 4 16 -7 17 -129 17 -91 0 -138 4 -146 12 -17 17 -17 439 0 456 9 9 106 12 375 12 348 0 363 -1 373 -19z"/> <path d="M2220 2760 l0 -50 290 0 290 0 0 50 0 50 -290 0 -290 0 0 -50z"/> <path d="M2220 2565 l0 -45 195 0 195 0 0 45 0 45 -195 0 -195 0 0 -45z"/> <path d="M2710 2565 l0 -45 45 0 45 0 0 45 0 45 -45 0 -45 0 0 -45z"/> <path d="M1256 2834 c-416 -78 -780 -352 -968 -729 -46 -92 -79 -175 -99 -254 l-11 -44 -45 76 -45 77 -39 -22 c-21 -12 -39 -26 -39 -31 0 -16 161 -278 169 -275 31 12 271 162 271 169 0 4 -9 24 -21 43 l-21 36 -46 -27 c-26 -14 -53 -31 -60 -36 -24 -18 -24 2 -2 70 98 298 309 555 585 711 271 152 617 199 912 123 l72 -19 15 44 c8 24 11 46 6 49 -4 2 -45 14 -91 26 -112 28 -423 36 -543 13z"/> <path d="M1405 2509 c-138 -20 -244 -76 -350 -183 -92 -93 -136 -167 -165 -282 -17 -66 -20 -111 -20 -306 0 -184 3 -236 15 -266 21 -48 47 -75 95 -97 34 -15 42 -25 58 -74 33 -97 108 -198 178 -242 64 -39 46 -50 -149 -85 -105 -19 -197 -42 -225 -55 -84 -41 -147 -121 -186 -234 -6 -17 -19 -8 -97 71 -49 50 -89 99 -89 109 0 10 46 65 102 122 l102 104 -177 177 -177 177 -130 -130 c-137 -137 -164 -177 -181 -272 -12 -66 2 -147 38 -214 16 -30 153 -174 386 -407 419 -417 418 -417 567 -417 116 1 157 23 332 182 l139 126 -38 39 -37 38 517 0 c284 0 517 4 517 9 0 24 -123 366 -143 399 -30 46 -84 95 -136 122 -22 10 -113 33 -202 50 -212 39 -209 38 -209 55 0 8 4 15 10 15 5 0 38 26 72 59 l63 59 72 4 c77 4 108 19 147 72 20 27 21 39 21 384 0 310 -2 365 -18 421 -70 255 -273 434 -530 470 -87 12 -87 12 -172 0z m191 -100 c130 -23 274 -119 345 -230 62 -97 81 -169 87 -323 4 -129 3 -139 -12 -133 -10 4 -22 7 -27 7 -5 0 -9 14 -9 30 0 30 -1 30 -52 30 -130 1 -266 57 -365 152 l-62 60 -62 -56 c-111 -100 -208 -143 -346 -153 l-83 -6 0 -28 c0 -16 -4 -29 -9 -29 -5 0 -17 -3 -27 -7 -16 -6 -17 3 -11 123 4 71 13 152 20 180 35 127 137 258 248 321 116 66 235 86 365 62z m-43 -589 c85 -63 225 -120 300 -120 l29 0 -4 -177 c-4 -144 -8 -186 -23 -220 l-18 -43 -169 0 -168 0 0 -50 0 -50 121 0 c106 0 120 -2 109 -15 -21 -25 -113 -64 -175 -74 -169 -26 -338 67 -413 226 -25 54 -27 68 -30 228 l-4 170 72 12 c81 12 212 72 270 122 19 17 39 30 43 31 4 0 31 -18 60 -40z m-543 -272 l0 -82 -21 21 c-26 26 -29 81 -6 117 10 14 20 26 22 26 3 0 5 -37 5 -82z m1016 11 c5 -29 1 -41 -20 -65 l-25 -29 -1 85 0 84 20 -20 c11 -11 23 -36 26 -55z m-6 -279 c-7 -14 -21 -20 -44 -20 l-34 0 16 50 c12 37 22 52 41 58 25 8 26 7 29 -29 2 -21 -2 -47 -8 -59z m-1589 -81 l112 -111 -27 -26 -26 -27 -112 112 -112 112 24 26 c13 14 25 25 26 25 1 0 53 -50 115 -111z m-32 -257 c-13 -17 -19 -40 -19 -77 0 -68 15 -87 227 -297 205 -203 241 -223 328 -178 l40 20 110 -110 110 -110 -30 -26 c-74 -62 -182 -82 -263 -49 -47 20 -744 712 -775 770 -16 30 -21 58 -21 110 0 74 11 107 60 165 l27 32 113 -113 113 -112 -20 -25z m1121 30 c47 3 94 9 105 13 11 4 -11 -24 -50 -64 -38 -39 -74 -71 -79 -71 -12 0 -136 121 -136 131 0 4 17 3 37 -3 21 -6 76 -8 123 -6z m-123 -164 l103 -103 105 105 104 104 182 -33 c100 -17 199 -41 219 -51 69 -35 104 -87 148 -218 22 -66 37 -123 34 -126 -3 -3 -226 -6 -496 -6 l-491 0 -96 96 -97 97 -112 -102 c-63 -57 -120 -101 -131 -101 -11 0 -47 26 -80 57 -66 63 -66 58 -27 160 24 66 73 123 125 147 38 16 322 73 378 75 25 1 46 -16 132 -101z m-99 -521 l-33 -27 -109 110 -110 109 29 31 29 30 114 -112 113 -113 -33 -28z"/> <path d="M2605 1957 l-85 -142 38 -22 c20 -13 39 -23 42 -23 3 0 23 30 44 66 45 76 46 76 77 -47 29 -118 37 -369 15 -495 -32 -185 -102 -358 -207 -510 l-53 -76 34 -29 c19 -16 38 -29 41 -29 9 0 124 180 158 247 141 283 178 628 100 937 -11 43 -18 80 -16 83 2 2 32 -13 66 -33 34 -20 63 -35 65 -33 41 54 48 71 35 83 -8 7 -71 47 -141 89 l-128 76 -85 -142z"/> </g> </svg> 