 <svg  version="1.0" xmlns="http://www.w3.org/2000/svg"  width="300.000000pt" height="300.000000pt" viewBox="0 0 300.000000 300.000000"  preserveAspectRatio="xMidYMid meet">  <g transform="translate(0.000000,300.000000) scale(0.100000,-0.100000)" fill="#ffffff" stroke="none"> <path d="M1330 2981 c-346 -73 -607 -328 -687 -669 -11 -47 -17 -142 -20 -320 -4 -220 -3 -260 12 -297 15 -40 73 -105 94 -105 5 0 10 -31 13 -69 3 -56 9 -75 31 -105 35 -45 75 -66 141 -73 49 -5 52 -7 85 -60 18 -31 47 -70 63 -89 l29 -33 -50 -99 -50 -100 -143 -47 c-244 -81 -331 -129 -445 -247 -137 -142 -222 -323 -243 -522 -9 -89 -4 -120 24 -138 6 -4 598 -8 1316 -8 718 0 1310 4 1316 8 28 18 33 49 24 138 -21 199 -106 380 -243 522 -114 118 -201 166 -445 247 l-143 47 -50 100 -50 100 24 27 c71 77 128 198 151 321 l12 65 85 5 c89 6 111 14 146 52 48 51 53 83 53 315 0 229 -13 351 -48 453 -144 418 -579 670 -1002 581z m332 -116 c42 -9 118 -37 178 -66 91 -45 115 -63 195 -143 69 -69 101 -110 132 -171 44 -86 76 -181 87 -257 l7 -48 -59 0 -59 0 -6 63 c-17 176 -128 345 -288 440 -107 63 -150 72 -349 72 -199 0 -242 -9 -349 -72 -160 -95 -271 -264 -288 -440 l-6 -63 -59 0 -60 0 7 43 c43 274 222 504 471 604 37 14 92 32 123 39 79 17 237 17 323 -1z m2 -231 c177 -46 314 -187 351 -361 16 -74 20 -153 8 -153 -26 0 -178 34 -233 51 -117 38 -241 111 -332 195 -41 38 -53 44 -92 44 -116 0 -242 -51 -332 -133 l-57 -52 6 45 c17 113 129 264 237 321 114 58 310 78 444 43z m-264 -373 c66 -56 179 -127 257 -162 81 -36 222 -76 306 -85 l60 -7 -7 -106 c-10 -148 -44 -385 -66 -451 -54 -162 -171 -280 -324 -325 -73 -22 -187 -20 -268 5 -75 23 -168 87 -214 146 -51 65 -51 64 15 64 57 0 61 -2 76 -30 8 -16 32 -41 52 -55 35 -23 46 -25 154 -25 104 0 119 2 150 23 55 37 79 81 79 147 0 66 -24 110 -79 147 -31 21 -46 23 -150 23 -132 0 -165 -13 -202 -75 l-21 -35 -88 0 -87 0 -11 58 c-20 99 -42 288 -48 405 l-6 112 59 75 c87 112 166 159 312 189 3 1 25 -17 51 -38z m-531 -372 c7 -95 15 -179 18 -187 5 -12 -4 -14 -57 -10 -89 6 -90 8 -90 205 l0 163 58 0 58 0 13 -171z m1391 8 c0 -197 -1 -199 -90 -205 -53 -4 -62 -2 -57 10 3 8 11 92 18 187 l13 171 58 0 58 0 0 -163z m-1347 -375 c10 -60 7 -67 -22 -57 -13 4 -25 21 -32 45 -15 48 -6 72 23 68 19 -2 24 -12 31 -56z m627 -82 c11 -11 20 -29 20 -40 0 -43 -34 -60 -117 -60 -85 0 -113 14 -113 58 0 48 25 62 112 62 65 0 81 -3 98 -20z m327 -455 l37 -75 -19 -55 c-10 -31 -39 -100 -65 -153 l-46 -97 -97 96 c-53 53 -97 100 -97 103 0 10 233 256 243 256 4 0 24 -34 44 -75z m-547 -280 l-95 -96 -46 95 c-25 52 -54 120 -64 150 l-19 56 34 70 34 71 125 -126 126 -125 -95 -95z m270 285 c0 -3 -22 -28 -49 -54 l-50 -49 -41 39 c-72 68 -71 69 41 69 54 0 99 -2 99 -5z m-570 -212 c43 -117 159 -334 265 -493 l107 -160 -557 -3 c-307 -1 -560 0 -562 2 -2 2 4 39 13 82 19 93 58 190 110 271 50 80 168 192 243 232 49 26 320 126 352 130 4 1 16 -27 29 -61z m1132 13 c187 -63 255 -99 344 -186 80 -78 131 -153 174 -253 26 -62 66 -220 57 -228 -2 -2 -255 -3 -562 -2 l-557 3 107 160 c106 159 222 376 265 493 13 34 23 62 24 62 1 0 68 -22 148 -49z m-442 -294 c0 -13 -201 -312 -209 -312 -9 0 -211 298 -211 310 0 4 46 56 102 116 l102 110 108 -108 c59 -59 108 -111 108 -116z"/> <path d="M2107 662 c-36 -39 -13 -94 38 -94 34 -1 55 19 55 52 0 52 -60 79 -93 42z"/> <path d="M2328 559 c-49 -28 -42 -71 18 -122 18 -15 52 -57 75 -93 44 -67 72 -84 107 -65 33 17 36 46 11 97 -28 55 -120 159 -160 179 -33 17 -29 17 -51 4z"/> </g> </svg> 