<?xml version="1.0" standalone="no"?>
<!DOCTYPE svg PUBLIC "-//W3C//DTD SVG 20010904//EN"
 "http://www.w3.org/TR/2001/REC-SVG-20010904/DTD/svg10.dtd">
<svg version="1.0" xmlns="http://www.w3.org/2000/svg"
 width="512.000000pt" height="512.000000pt" viewBox="0 0 512.000000 512.000000"
 preserveAspectRatio="xMidYMid meet">
<metadata>
Created by potrace 1.10, written by Peter Selinger 2001-2011
</metadata>
<g transform="translate(0.000000,512.000000) scale(0.100000,-0.100000)"
fill="#ffffff" stroke="none">
<path d="M1491 5104 c-151 -41 -276 -168 -311 -316 -5 -25 -10 -249 -10 -540
0 -485 1 -499 20 -518 26 -26 64 -25 90 2 20 21 20 32 20 515 0 473 1 494 21
547 25 67 86 133 154 166 l50 25 377 3 377 3 21 26 c25 32 25 44 -1 77 l-20
26 -367 -1 c-288 0 -379 -3 -421 -15z"/>
<path d="M2634 5099 c-120 -37 -219 -129 -265 -246 -23 -57 -24 -66 -27 -451
l-3 -394 -40 -64 c-50 -83 -53 -132 -10 -175 l30 -29 213 2 212 3 15 26 c17
30 9 73 -16 85 -10 5 -89 11 -175 14 l-157 5 29 46 29 47 3 398 c3 396 3 399
27 452 31 69 106 137 174 157 42 12 131 15 527 15 414 0 478 2 498 16 28 19
29 67 2 94 -19 19 -33 20 -512 19 -460 0 -497 -1 -554 -20z"/>
<path d="M3892 5097 c-27 -28 -28 -61 -4 -85 14 -14 40 -20 103 -24 102 -7
169 -36 222 -99 64 -75 67 -93 67 -468 0 -331 -1 -337 -24 -386 -29 -64 -77
-112 -141 -141 l-50 -24 -546 0 c-537 0 -547 0 -573 -21 -30 -24 -34 -57 -8
-88 l17 -22 580 3 580 3 60 29 c77 38 163 124 201 201 l29 60 0 390 0 390 -32
67 c-71 151 -216 238 -393 238 -57 0 -70 -3 -88 -23z"/>
<path d="M1547 4845 c-47 -16 -81 -46 -101 -90 -14 -28 -16 -94 -16 -452 0
-467 -1 -463 64 -463 67 0 66 -10 66 448 0 360 2 413 16 426 11 12 35 16 84
16 l69 0 26 -55 c49 -103 122 -135 302 -135 108 0 115 1 138 25 29 28 31 51
10 82 -14 20 -25 22 -149 25 -126 3 -136 5 -160 27 -14 13 -29 40 -32 60 -9
51 -20 69 -54 86 -38 19 -209 20 -263 0z"/>
<path d="M2753 4726 l-28 -24 0 -287 0 -287 29 -25 c28 -24 32 -24 162 -21
129 3 133 4 176 33 107 76 124 225 37 321 -18 20 -19 23 -3 60 36 85 -6 193
-90 234 -34 16 -62 20 -149 20 -98 0 -108 -2 -134 -24z m237 -126 c26 -26 25
-52 -4 -79 -19 -18 -33 -22 -77 -19 l-54 3 -3 58 -3 57 61 0 c47 0 64 -4 80
-20z m41 -259 c33 -33 35 -50 14 -90 -18 -36 -31 -41 -116 -41 l-69 0 0 80 0
80 71 0 c65 0 73 -2 100 -29z"/>
<path d="M3307 4732 c-15 -16 -17 -53 -17 -319 0 -286 1 -301 20 -318 27 -24
70 -22 92 5 16 20 18 47 18 314 0 248 -2 295 -16 314 -19 28 -74 30 -97 4z"/>
<path d="M3600 4744 c-51 -21 -50 -17 -50 -330 l0 -293 28 -21 c25 -20 35 -22
137 -18 128 6 171 20 232 80 70 68 88 123 87 258 0 124 -8 151 -62 226 -49 67
-117 94 -248 100 -60 2 -116 1 -124 -2z m260 -171 c37 -41 53 -102 48 -178 -8
-122 -58 -175 -165 -175 l-63 0 0 193 c0 107 2 196 4 198 3 2 37 2 76 -1 65
-5 75 -8 100 -37z"/>
<path d="M1479 3697 c-20 -8 -53 -24 -72 -36 -38 -23 -390 -425 -409 -466 -21
-47 43 -102 88 -77 10 6 97 101 194 213 96 111 187 211 201 222 68 49 184 24
234 -52 32 -48 37 -119 11 -170 -10 -18 -110 -166 -224 -329 -194 -279 -206
-300 -206 -342 0 -40 11 -63 105 -210 59 -91 120 -193 138 -228 147 -291 147
-659 1 -959 -50 -103 -82 -147 -288 -411 -68 -87 -112 -152 -112 -166 0 -27
39 -66 66 -66 10 0 26 6 35 13 24 19 302 375 348 447 122 188 179 375 188 606
7 181 -5 277 -53 424 -43 133 -86 219 -202 398 -50 79 -92 147 -92 151 0 4 95
145 210 311 228 328 248 368 237 462 -13 107 -81 204 -175 249 -56 27 -171 35
-223 16z"/>
<path d="M3160 3593 c-35 -12 -40 -35 -40 -169 l0 -133 -47 -21 c-71 -31 -111
-66 -140 -123 -45 -89 -33 -198 32 -276 l27 -31 -41 -46 c-94 -108 -92 -243 6
-345 l35 -37 -27 -45 c-72 -124 -24 -286 103 -347 l52 -25 0 -183 c0 -108 -4
-191 -10 -203 -10 -18 -27 -19 -589 -19 l-578 0 -21 -23 c-26 -27 -28 -54 -6
-85 l15 -22 595 0 c572 0 596 1 633 20 22 11 50 36 62 57 23 36 24 49 29 251
l5 214 59 24 c33 13 61 24 63 24 3 0 3 -114 1 -252 -3 -253 -3 -253 -30 -304
-33 -63 -103 -126 -166 -150 -43 -17 -103 -19 -684 -24 -481 -4 -640 -8 -649
-17 -21 -21 -15 -74 10 -95 22 -17 55 -18 631 -18 366 0 628 4 660 10 163 31
292 145 340 299 18 56 20 92 20 327 l0 264 63 63 c68 67 87 109 87 188 0 49
-36 134 -69 163 -27 24 -27 38 0 62 34 30 69 114 69 165 0 63 -25 129 -64 172
-33 36 -33 37 -14 54 11 10 32 38 47 63 22 38 26 57 26 120 0 64 -4 82 -28
123 -16 27 -49 63 -73 80 l-44 31 0 92 c0 88 -1 94 -26 113 -15 12 -32 21 -39
21 -7 0 -24 -9 -39 -21 -24 -19 -26 -26 -26 -104 l0 -83 -47 -16 c-27 -10 -56
-20 -65 -23 -16 -5 -18 4 -18 96 0 95 -2 104 -25 126 -24 25 -36 28 -65 18z
m308 -353 c67 -41 80 -130 24 -182 -24 -24 -231 -117 -307 -139 -105 -31 -192
110 -117 190 29 33 297 150 342 151 14 0 40 -9 58 -20z m10 -406 c55 -36 64
-129 17 -176 -32 -32 -319 -151 -366 -151 -99 0 -152 125 -83 194 24 23 232
120 324 150 32 10 77 3 108 -17z m0 -401 c24 -15 52 -69 52 -99 0 -35 -34 -86
-69 -103 -71 -37 -262 -111 -284 -111 -35 0 -86 37 -103 74 -22 44 -12 95 24
128 21 21 161 86 282 131 21 8 70 -2 98 -20z"/>
<path d="M808 2982 c-148 -158 -281 -394 -343 -610 -40 -141 -53 -223 -70
-471 l-16 -234 -47 -52 c-26 -29 -91 -100 -144 -157 -79 -84 -98 -111 -98
-135 0 -52 62 -83 102 -50 8 6 83 84 165 173 l150 160 7 100 c25 344 38 467
60 560 55 223 139 391 292 580 79 98 89 129 54 164 -32 32 -63 25 -112 -28z"/>
</g>
</svg>
