 <svg  version="1.0" xmlns="http://www.w3.org/2000/svg"  width="512.000000pt" height="512.000000pt" viewBox="0 0 512.000000 512.000000"  preserveAspectRatio="xMidYMid meet">  <g transform="translate(0.000000,512.000000) scale(0.100000,-0.100000)" fill="#ffffff" stroke="none"> <path d="M1093 4825 c-272 -50 -496 -218 -613 -459 -77 -158 -78 -170 -105 -856 -54 -1377 -67 -1759 -61 -1835 8 -107 38 -211 92 -315 107 -209 283 -353 519 -427 l90 -28 1240 0 1240 0 78 23 c338 98 593 404 613 737 6 86 -8 495 -61 1845 -27 686 -28 698 -105 856 -104 216 -304 379 -545 446 l-80 23 -1115 2 c-884 1 -1130 -1 -1187 -12z m2302 -280 c217 -46 384 -211 429 -425 11 -54 21 -236 36 -645 11 -313 27 -743 36 -955 29 -779 30 -814 4 -907 -50 -186 -181 -333 -356 -401 l-69 -27 -1177 -3 c-1310 -3 -1256 -5 -1398 65 -146 71 -262 222 -296 386 -13 62 -12 150 16 906 52 1417 58 1540 75 1605 52 196 222 357 425 400 99 22 2173 22 2275 1z"/> <path d="M1343 4261 c-58 -27 -73 -61 -73 -165 0 -247 110 -488 306 -677 85 -80 140 -118 246 -169 271 -130 585 -130 856 0 106 51 161 89 246 169 159 153 252 321 292 529 19 100 18 225 -2 263 -21 42 -92 73 -145 64 -79 -14 -119 -73 -119 -180 -1 -167 -100 -376 -232 -488 -154 -131 -364 -195 -554 -168 -255 36 -452 179 -553 403 -39 86 -50 132 -61 249 -5 62 -14 109 -24 124 -38 58 -115 77 -183 46z"/> </g> </svg> 