 <svg  version="1.0" xmlns="http://www.w3.org/2000/svg"  width="512.000000pt" height="512.000000pt" viewBox="0 0 512.000000 512.000000"  preserveAspectRatio="xMidYMid meet">  <g transform="translate(0.000000,512.000000) scale(0.100000,-0.100000)" fill="#ffffff" stroke="none"> <path d="M4003 5111 c-109 -28 -202 -106 -252 -211 -22 -48 -25 -67 -24 -145 1 -49 3 -102 5 -116 3 -23 -37 -60 -342 -321 l-345 -294 -50 19 c-109 43 -264 18 -351 -57 l-39 -33 -190 77 c-105 42 -239 97 -300 122 l-110 45 -13 64 c-26 129 -91 218 -200 271 -61 30 -74 33 -162 33 -85 0 -101 -3 -154 -29 -125 -62 -197 -170 -204 -308 -2 -43 -9 -82 -16 -87 -6 -5 -146 -89 -311 -186 l-300 -177 -65 34 c-61 31 -71 33 -165 33 -82 0 -109 -4 -147 -22 -66 -30 -145 -107 -181 -178 -29 -55 -32 -68 -32 -155 0 -83 3 -102 27 -150 43 -87 90 -135 175 -177 68 -34 82 -37 156 -37 121 0 224 51 292 144 45 61 64 117 73 209 l7 75 70 41 c39 23 177 105 307 183 l238 141 57 -30 c137 -69 292 -56 401 36 16 14 36 25 43 25 8 0 145 -54 304 -119 l290 -119 13 -63 c25 -125 88 -212 194 -270 60 -33 67 -34 168 -34 102 0 107 1 170 36 78 43 139 113 170 196 18 49 21 74 18 156 l-3 98 349 298 350 298 60 -20 c166 -52 349 29 429 192 29 59 32 74 32 156 0 82 -3 97 -32 156 -61 123 -172 197 -306 204 -39 2 -86 0 -104 -4z"/> <path d="M3750 2200 l0 -1580 360 0 360 0 0 1580 0 1580 -360 0 -360 0 0 -1580z"/> <path d="M1270 1980 l0 -1360 360 0 360 0 0 1360 0 1360 -360 0 -360 0 0 -1360z"/> <path d="M2510 1690 l0 -1070 360 0 360 0 0 1070 0 1070 -360 0 -360 0 0 -1070z"/> <path d="M30 1465 l0 -845 360 0 360 0 0 845 0 845 -360 0 -360 0 0 -845z"/> </g> </svg> 